# xmcd
# 
# Track frame offsets:
#     150
#     14473
#     29909
#     51364
#     71009
#     85933
#     102841
#     128873
#     149062
#     182722
# 
# Disc length: 2793
# 
# Revision: 0
# Processed by: cddbd v1.5.2PL0 Copyright (c) Steve Scherf et al.
# Submitted via: fre:ac v1.0.17
# 
DISCID=970ae70a
DTITLE=Bo Diddley - Live in eighty-five
DYEAR=2010
DGENRE=Blues
TTITLE0=I'm A Man
TTITLE1=Bo Diddley
TTITLE2=I'm A Man
TTITLE3=Bo Put The Rock In Rock and Roll
TTITLE4=My Ding-A-Ling
TTITLE5=Destination
TTITLE6=Who Do You Love
TTITLE7=Gunslinger
TTITLE8=Hey! Bo Diddley
TTITLE9=Rock And Roll Music
EXTD=Originally recorded in Irvine Meadows Amphitheatre october 1985.
EXTT0=
EXTT1=
EXTT2=
EXTT3=
EXTT4=
EXTT5=
EXTT6=
EXTT7=
EXTT8=
EXTT9=
PLAYORDER=
